<svg id="f42f6128-5c5f-465d-975b-f30d68dfeb56" data-name="glyph" xmlns="http://www.w3.org/2000/svg" viewBox="0 0 64 64"><title>1</title><path d="M59.67377,14.17108c-8.43207-7.49188-18.75464-.85022-21.17523.91022a15.75753,15.75753,0,0,0-13.00318,0c-2.42059-1.76044-12.74316-8.41211-21.17523-.91022a1.01676,1.01676,0,0,0,.63019,1.75043c.05,0,4.81115.33008,11.07269,8.68213a12.552,12.552,0,0,0,3.33081,10.62262,1.563,1.563,0,0,1,.14,1.30035,5.7858,5.7858,0,0,0,.93042,5.85138C21.241,43.51685,27.68964,53.84332,32.617,53.3009c4.62122-1.24048,10.12262-9.62256,10.95282-10.92285a5.77845,5.77845,0,0,0,.93006-5.85144,1.5851,1.5851,0,0,1,.1402-1.30035,12.52487,12.52487,0,0,0,3.33081-10.62262c6.26153-8.352,11.0227-8.68213,11.0628-8.68213A1.01217,1.01217,0,0,0,59.67377,14.17108Zm-36.639,12.89319c-.75311,1.50446-2.62775.25494-2.93073-1.75037a2.81828,2.81828,0,0,1,3.39093-3.21081,50.12188,50.12188,0,0,1,6.1214,3.5108,1.00151,1.00151,0,0,1-1.12024,1.66046,62.26487,62.26487,0,0,0-5.5617-3.25085c-.91657-.09027-1.13623,1.31366-.48981,1.7605A.98841.98841,0,0,1,23.03473,27.06427ZM38.92865,37.59686a9.79773,9.79773,0,0,1-1.77045,1.09027v3.921a1.00035,1.00035,0,0,1-2.00049-.00006V39.42731a10.93018,10.93018,0,0,1-2.95068.40014,11.19919,11.19919,0,0,1-2.94073-.39013v3.17077a1.00036,1.00036,0,0,1-2.00049-.00006v-3.9209a9.26544,9.26544,0,0,1-1.77045-1.09027.99852.99852,0,0,1,1.22034-1.58032,9.28339,9.28339,0,0,0,9.08215,1.11017c1.09479-.24127,2.27063-2.07715,3.31079-.9303A1.00919,1.00919,0,0,1,38.92865,37.59686Zm4.96124-12.283c-.30139,2.005-2.17944,3.25452-2.93078,1.75049a.98862.98862,0,0,1,.59021-1.28039c.49145-.34961.62994-1.79071-.49018-1.76038a62.30766,62.30766,0,0,0-5.56134,3.25079,1.0017,1.0017,0,0,1-1.12018-1.66052A50.13039,50.13039,0,0,1,40.499,22.103,2.817,2.817,0,0,1,43.88989,25.31384Z" id="id_101" style="fill: rgb(21, 176, 27);"></path></svg>