<?xml version="1.0" encoding="UTF-8" standalone="no"?> <svg width="64" height="64" viewBox="0 0 64 64" fill="none" xmlns="http://www.w3.org/2000/svg">
<path d="M59.34 53.71L59 53.4L47.79 44C49.0852 41.8979 49.7776 39.4802 49.7917 37.0112C49.8058 34.5422 49.1411 32.1168 47.87 30V15.66C47.8731 15.6267 47.8731 15.5933 47.87 15.56C47.8747 15.5403 47.8747 15.5197 47.87 15.5C47.8425 15.277 47.7361 15.0713 47.57 14.92L35.93 3.29C35.7353 3.10578 35.478 3.00216 35.21 3H8C6.67392 3 5.40215 3.52678 4.46447 4.46447C3.52678 5.40215 3 6.67392 3 8V56C3 57.3261 3.52678 58.5979 4.46447 59.5355C5.40215 60.4732 6.67392 61 8 61H42.87C44.1961 61 45.4679 60.4732 46.4055 59.5355C47.3432 58.5979 47.87 57.3261 47.87 56V53.83L52.73 59.64C56.78 64.3 63.52 58.24 59.34 53.71ZM47.81 37C47.8074 39.6463 46.8874 42.2098 45.2068 44.2539C43.5263 46.298 41.189 47.6962 38.5932 48.2105C35.9974 48.7248 33.3036 48.3232 30.9706 47.0743C28.6377 45.8253 26.8098 43.8062 25.7985 41.3608C24.7871 38.9154 24.6548 36.1951 25.424 33.6631C26.1933 31.1311 27.8165 28.9441 30.0173 27.4746C32.218 26.0051 34.8601 25.344 37.4936 25.6039C40.1271 25.8638 42.589 27.0287 44.46 28.9C45.5261 29.9616 46.3711 31.2242 46.9462 32.6145C47.5212 34.0049 47.8148 35.4954 47.81 37ZM45.87 56C45.87 56.7956 45.5539 57.5587 44.9913 58.1213C44.4287 58.6839 43.6656 59 42.87 59H8C7.20435 59 6.44129 58.6839 5.87868 58.1213C5.31607 57.5587 5 56.7956 5 56V8C5 7.20435 5.31607 6.44129 5.87868 5.87868C6.44129 5.31607 7.20435 5 8 5H34.21V15.66C34.21 15.9252 34.3154 16.1796 34.5029 16.3671C34.6904 16.5546 34.9448 16.66 35.21 16.66H45.87V27.46C43.4039 24.9931 40.0754 23.5816 36.5877 23.5237C33.1001 23.4659 29.7265 24.7662 27.18 27.15H11.9C11.6348 27.15 11.3804 27.2554 11.1929 27.4429C11.0054 27.6304 10.9 27.8848 10.9 28.15C10.9 28.4152 11.0054 28.6696 11.1929 28.8571C11.3804 29.0446 11.6348 29.15 11.9 29.15H25.43C24.4206 30.5483 23.6968 32.1318 23.3 33.81H11.9C11.6348 33.81 11.3804 33.9154 11.1929 34.1029C11.0054 34.2904 10.9 34.5448 10.9 34.81C10.9 35.0752 11.0054 35.3296 11.1929 35.5171C11.3804 35.7046 11.6348 35.81 11.9 35.81H23C22.8693 37.3726 23.0114 38.9461 23.42 40.46H11.9C11.6348 40.46 11.3804 40.5654 11.1929 40.7529C11.0054 40.9404 10.9 41.1948 10.9 41.46C10.9 41.7252 11.0054 41.9796 11.1929 42.1671C11.3804 42.3546 11.6348 42.46 11.9 42.46H24.09C24.7575 43.9485 25.6892 45.3038 26.84 46.46C27.07 46.68 27.3 46.88 27.54 47.09H11.9C11.6348 47.09 11.3804 47.1954 11.1929 47.3829C11.0054 47.5704 10.9 47.8248 10.9 48.09C10.9 48.3552 11.0054 48.6096 11.1929 48.7971C11.3804 48.9846 11.6348 49.09 11.9 49.09H30.6C32.6166 50.0498 34.8411 50.4904 37.0714 50.3716C39.3016 50.2529 41.4667 49.5786 43.37 48.41L45.87 51.41V56Z" fill="black"/>
<path d="M11.9 22.49H25.44C25.7052 22.49 25.9596 22.3846 26.1471 22.1971C26.3347 22.0096 26.44 21.7552 26.44 21.49C26.44 21.2248 26.3347 20.9704 26.1471 20.7829C25.9596 20.5954 25.7052 20.49 25.44 20.49H11.9C11.6348 20.49 11.3805 20.5954 11.1929 20.7829C11.0054 20.9704 10.9 21.2248 10.9 21.49C10.9 21.7552 11.0054 22.0096 11.1929 22.1971C11.3805 22.3846 11.6348 22.49 11.9 22.49V22.49Z" fill="black"/>
</svg>
